<?xml version="1.0" standalone="no"?>
<!DOCTYPE svg PUBLIC "-//W3C//DTD SVG 20010904//EN"
 "http://www.w3.org/TR/2001/REC-SVG-20010904/DTD/svg10.dtd">
<svg version="1.0" xmlns="http://www.w3.org/2000/svg"
 width="724.000000pt" height="296.000000pt" viewBox="0 0 724.000000 296.000000"
 preserveAspectRatio="xMidYMid meet">

<g transform="translate(0.000000,296.000000) scale(0.100000,-0.100000)"
fill="#000000" stroke="none">
<path d="M6287 2918 c-28 -75 -46 -157 -57 -261 -5 -55 -9 -101 -8 -102 2 -2
22 -12 46 -24 23 -12 42 -23 42 -26 0 -2 45 -315 100 -695 55 -381 100 -699
100 -706 0 -12 -67 -14 -405 -14 -420 0 -466 4 -544 43 -70 36 -72 47 -15 98
125 112 174 187 174 264 -1 165 -197 257 -514 242 -261 -12 -335 -76 -344
-299 -5 -120 -1 -126 50 -83 78 66 166 35 255 -91 l23 -31 -58 -31 c-127 -68
-335 -118 -457 -110 l-50 3 -6 135 c-10 214 -59 328 -211 494 l-54 59 -47
-132 -46 -132 64 -82 c124 -156 194 -339 181 -470 -7 -73 -48 -172 -106 -257
-60 -89 -199 -231 -294 -302 -92 -68 -271 -159 -366 -185 -104 -28 -292 -24
-465 10 -77 15 -146 29 -153 30 -7 1 -19 -12 -27 -29 l-13 -32 179 -66 c322
-119 486 -153 612 -127 166 34 428 207 567 375 106 128 167 251 177 356 l5 56
132 11 c205 19 347 67 496 170 l64 45 15 -23 c29 -46 101 -106 165 -138 118
-58 150 -61 694 -61 l492 0 0 158 c0 147 -6 197 -100 817 -54 363 -97 661 -95
663 2 3 19 -1 36 -7 18 -6 36 -8 41 -3 12 12 36 148 40 231 l3 73 -99 39
c-110 42 -162 83 -172 136 -10 55 -29 59 -47 11z"/>
<path d="M532 2815 l-58 -114 70 -37 c39 -20 99 -52 133 -71 l62 -34 37 68
c20 37 50 91 66 120 l28 51 -129 66 c-71 36 -134 66 -140 66 -6 0 -37 -52 -69
-115z"/>
<path d="M7001 2679 l-74 -153 37 -315 c75 -649 110 -1079 104 -1301 -2 -118
0 -145 11 -145 18 0 116 193 138 275 31 114 24 379 -23 855 -21 216 -104 886
-112 914 -7 20 -19 -1 -81 -130z"/>
<path d="M151 2662 l-59 -117 134 -69 c74 -38 136 -67 137 -65 10 11 117 223
117 231 0 7 -251 138 -265 138 -3 0 -31 -53 -64 -118z"/>
<path d="M716 2265 c-15 -19 -41 -61 -58 -93 -28 -53 -30 -62 -24 -132 3 -41
8 -85 11 -96 6 -19 -6 -28 -92 -74 -156 -83 -270 -166 -384 -280 -118 -118
-159 -185 -162 -267 -2 -46 0 -49 33 -65 55 -27 199 -48 339 -49 109 -1 135 2
174 19 53 23 127 89 159 140 l22 36 22 -105 c54 -260 142 -436 238 -480 39
-18 89 -19 1005 -19 l964 0 -6 328 c-5 347 -17 451 -59 536 -24 51 -120 196
-129 196 -3 0 -34 -59 -68 -130 l-62 -131 71 -87 c94 -116 130 -218 130 -370
l0 -52 -357 2 -358 3 -6 205 c-6 208 -21 306 -55 373 -23 44 -111 174 -124
182 -10 6 -130 -234 -130 -260 0 -6 10 -20 21 -31 43 -38 119 -148 138 -199
19 -50 41 -184 41 -247 l0 -28 -485 0 -486 0 -24 26 c-49 52 -89 199 -150 544
-20 113 -49 270 -64 350 -16 80 -34 178 -41 218 -6 39 -13 72 -15 72 -1 0 -15
-16 -29 -35z m-16 -643 l12 -74 -32 -33 c-18 -19 -56 -44 -84 -56 -44 -19 -62
-21 -131 -16 -44 4 -97 11 -118 17 -34 10 -36 13 -26 33 20 37 112 122 164
151 28 15 82 41 120 56 81 33 75 38 95 -78z"/>
<path d="M1781 491 l-61 -119 93 -50 c50 -27 110 -59 133 -70 l40 -21 63 116
c34 63 59 119 54 123 -4 4 -65 37 -135 74 l-126 67 -61 -120z"/>
<path d="M2455 420 c-30 -60 -55 -114 -55 -120 0 -5 58 -39 130 -75 l129 -65
47 88 c26 48 55 100 65 117 l18 29 -130 68 c-71 37 -134 68 -139 68 -6 0 -35
-49 -65 -110z"/>
<path d="M1397 334 c-32 -64 -57 -118 -55 -119 7 -6 255 -135 260 -135 6 0
128 225 128 235 0 6 -256 135 -268 135 -4 0 -33 -52 -65 -116z"/>
</g>
</svg>
