<?xml version="1.0" standalone="no"?>
<!DOCTYPE svg PUBLIC "-//W3C//DTD SVG 20010904//EN"
 "http://www.w3.org/TR/2001/REC-SVG-20010904/DTD/svg10.dtd">
<svg version="1.0" xmlns="http://www.w3.org/2000/svg"
 width="779.000000pt" height="188.000000pt" viewBox="0 0 779.000000 188.000000"
 preserveAspectRatio="xMidYMid meet">

<g transform="translate(0.000000,188.000000) scale(0.100000,-0.100000)"
fill="#000000" stroke="none">
<path d="M3630 1870 c-397 -51 -682 -282 -784 -634 -73 -252 -51 -527 60 -752
120 -245 351 -413 644 -468 130 -25 316 -21 433 8 110 28 228 86 303 148 52
43 128 127 121 134 -2 2 -75 58 -163 123 l-158 119 -39 -44 c-86 -98 -192
-144 -332 -144 -291 0 -505 244 -505 575 0 176 58 325 169 436 77 77 146 113
257 136 141 29 292 -8 387 -96 l44 -40 151 123 152 124 -43 44 c-84 87 -204
153 -341 188 -90 23 -261 33 -356 20z"/>
<path d="M30 1830 c-25 -25 -26 -62 -2 -82 9 -8 73 -37 142 -63 69 -27 128
-51 132 -54 5 -5 188 -969 188 -993 0 -17 34 -38 62 -38 25 0 29 -3 23 -17
-37 -94 -65 -179 -65 -198 0 -27 26 -45 64 -45 l25 0 -19 -42 c-75 -166 85
-326 248 -247 64 32 97 86 97 164 0 41 -6 70 -17 88 -10 14 -18 29 -18 32 0 3
88 5 195 5 107 0 195 -2 195 -4 0 -2 -9 -23 -20 -47 -39 -88 -12 -179 68 -230
74 -47 178 -34 234 28 48 53 60 140 28 210 l-19 43 30 0 c45 0 69 17 69 48 0
16 -5 33 -12 40 -9 9 -138 12 -521 12 -403 0 -508 3 -504 13 3 6 16 42 28 80
l23 67 481 0 c452 0 483 1 498 18 18 20 277 814 277 850 0 36 -34 62 -82 62
-24 0 -288 11 -588 25 -300 14 -560 25 -577 25 -63 0 -96 -66 -53 -105 18 -17
73 -21 588 -43 312 -13 568 -25 569 -26 1 -1 -47 -155 -106 -341 l-109 -340
-490 -3 c-461 -2 -491 -1 -496 15 -2 10 -44 229 -92 488 -59 317 -93 476 -103
487 -16 16 -313 138 -338 138 -7 0 -22 -9 -33 -20z m765 -1555 c34 -33 34 -87
0 -120 -13 -14 -34 -25 -45 -25 -29 0 -76 26 -84 45 -33 88 65 165 129 100z
m668 13 c72 -38 60 -134 -20 -154 -34 -9 -74 12 -91 48 -10 22 -10 33 2 62 22
52 63 69 109 44z"/>
<path d="M7088 1458 l-3 -183 -122 -3 -123 -3 0 -149 0 -149 123 -3 122 -3 5
-350 c5 -328 6 -353 26 -395 42 -91 102 -142 216 -182 54 -19 83 -22 208 -21
91 0 163 5 195 14 l50 14 3 157 3 157 -35 -14 c-20 -9 -67 -15 -108 -15 -87 0
-133 20 -163 71 -18 31 -20 55 -23 302 l-3 267 165 0 166 0 0 150 0 150 -165
0 -165 0 0 185 0 185 -185 0 -185 0 -2 -182z"/>
<path d="M4988 1290 c-123 -21 -278 -88 -353 -153 l-36 -32 96 -102 96 -102
62 49 c80 65 151 92 244 93 62 0 82 -4 130 -29 64 -33 109 -92 120 -157 l6
-37 -119 0 c-458 -1 -697 -135 -712 -399 -12 -204 100 -346 310 -396 170 -40
343 1 452 106 33 33 61 59 63 59 2 0 3 -34 3 -75 l0 -75 171 0 170 0 -4 427
c-4 469 -5 481 -68 605 -57 112 -156 182 -305 213 -73 15 -247 18 -326 5z
m362 -762 c0 -85 -17 -128 -70 -180 -134 -129 -400 -93 -400 55 0 115 120 175
358 176 l112 1 0 -52z"/>
<path d="M6567 1289 c-84 -20 -153 -72 -216 -163 l-41 -59 0 101 0 102 -185 0
-185 0 0 -615 0 -615 184 0 184 0 4 348 c4 304 7 354 23 399 42 121 130 176
280 177 50 1 111 -3 138 -8 l47 -8 0 170 c0 168 0 170 -22 176 -33 8 -167 6
-211 -5z"/>
</g>
</svg>
