<?xml version="1.0" standalone="no"?>
<!DOCTYPE svg PUBLIC "-//W3C//DTD SVG 20010904//EN"
 "http://www.w3.org/TR/2001/REC-SVG-20010904/DTD/svg10.dtd">
<svg version="1.0" xmlns="http://www.w3.org/2000/svg"
 width="821.000000pt" height="252.000000pt" viewBox="0 0 821.000000 252.000000"
 preserveAspectRatio="xMidYMid meet">

<g transform="translate(0.000000,252.000000) scale(0.100000,-0.100000)"
fill="#000000" stroke="none">
<path d="M4570 1560 l0 -950 185 0 185 0 0 950 0 950 -185 0 -185 0 0 -950z"/>
<path d="M7040 1560 l0 -950 184 0 185 0 4 373 c4 409 5 423 63 487 44 49 87
63 175 58 80 -4 112 -23 149 -89 l25 -44 3 -392 3 -393 191 0 190 0 -4 433
c-5 401 -7 438 -26 510 -41 149 -109 235 -221 278 -84 33 -265 39 -343 11 -78
-27 -140 -73 -177 -128 l-31 -47 0 421 0 422 -185 0 -185 0 0 -950z"/>
<path d="M5346 2430 c-122 -39 -189 -182 -137 -295 78 -172 324 -174 396 -3
30 74 13 181 -38 236 -50 53 -155 83 -221 62z"/>
<path d="M0 1500 l0 -890 625 0 625 0 0 180 0 180 -430 0 -430 0 0 185 0 185
385 0 385 0 0 180 0 180 -385 0 -385 0 0 165 0 165 410 0 410 0 0 180 0 180
-605 0 -605 0 0 -890z"/>
<path d="M2109 1841 c-72 -23 -140 -70 -184 -128 l-35 -46 0 82 0 81 -180 0
-180 0 0 -610 0 -610 184 0 184 0 5 368 c2 244 8 379 15 403 33 99 103 149
210 149 71 0 108 -15 145 -60 47 -55 50 -82 54 -482 l5 -378 185 0 184 0 -3
443 c-4 380 -7 450 -22 501 -48 169 -127 254 -271 292 -72 20 -228 17 -296 -5z"/>
<path d="M3320 1837 c-141 -48 -242 -141 -315 -290 -161 -330 -50 -744 236
-884 220 -108 480 -77 612 71 l28 31 -3 -105 c-3 -92 -7 -113 -32 -163 -50
-103 -155 -157 -307 -157 -121 0 -256 47 -350 121 -20 16 -40 29 -43 29 -11 0
-207 -301 -201 -310 12 -19 129 -83 202 -110 127 -46 261 -63 437 -57 111 4
170 11 224 26 217 63 347 192 413 411 23 74 23 82 27 728 l3 652 -171 0 -170
0 0 -79 0 -80 -52 52 c-94 93 -217 137 -378 137 -71 0 -111 -6 -160 -23z m418
-337 c99 -50 158 -135 169 -244 12 -113 -54 -233 -158 -291 -49 -27 -63 -30
-144 -30 -74 0 -97 4 -132 23 -185 98 -225 340 -80 485 92 92 229 114 345 57z"/>
<path d="M6167 1844 c-119 -28 -230 -101 -282 -184 -53 -84 -70 -225 -40 -327
21 -71 90 -145 170 -183 34 -16 129 -46 210 -65 81 -19 157 -40 168 -46 69
-36 86 -90 43 -134 -29 -29 -75 -38 -168 -33 -86 4 -148 30 -206 87 l-39 39
-113 -125 c-126 -140 -124 -131 -35 -188 116 -75 293 -113 467 -101 284 20
456 138 487 338 18 109 -8 212 -70 282 -63 72 -139 107 -342 155 -148 36 -169
43 -196 72 -40 43 -19 108 45 135 74 31 182 9 254 -53 l42 -36 114 114 115
114 -38 32 c-52 44 -129 80 -220 104 -92 23 -277 25 -366 3z"/>
<path d="M5220 1220 l0 -610 185 0 185 0 0 610 0 610 -185 0 -185 0 0 -610z"/>
</g>
</svg>
