<?xml version="1.0" standalone="no"?>
<!DOCTYPE svg PUBLIC "-//W3C//DTD SVG 20010904//EN"
 "http://www.w3.org/TR/2001/REC-SVG-20010904/DTD/svg10.dtd">
<svg version="1.0" xmlns="http://www.w3.org/2000/svg"
 width="1084.000000pt" height="196.000000pt" viewBox="0 0 1084.000000 196.000000"
 preserveAspectRatio="xMidYMid meet">

<g transform="translate(0.000000,196.000000) scale(0.100000,-0.100000)"
fill="#000000" stroke="none">
<path d="M6720 1554 l0 -407 -44 41 c-86 79 -194 115 -346 115 -215 -1 -381
-107 -480 -308 -59 -122 -74 -189 -74 -340 0 -94 5 -148 18 -194 43 -158 149
-299 273 -364 230 -120 473 -94 633 66 l50 50 0 -82 0 -81 170 0 170 0 0 955
0 955 -185 0 -185 0 0 -406z m-195 -589 c82 -14 151 -68 196 -155 33 -64 34
-222 3 -291 -27 -59 -85 -116 -143 -142 -67 -31 -197 -30 -269 2 -153 68 -214
279 -130 448 26 52 76 99 127 121 40 16 125 31 156 26 11 -2 38 -6 60 -9z"/>
<path d="M83 1899 c-17 -5 -42 -23 -53 -39 l-22 -31 -1 -847 c-2 -794 -1 -849
16 -875 39 -60 12 -58 765 -55 637 3 689 4 713 21 14 9 31 29 37 43 9 18 12
253 12 872 0 767 -2 850 -16 871 -36 51 -33 51 -751 50 -376 0 -682 -5 -700
-10z m1385 -81 c9 -8 12 -189 12 -844 l0 -833 -21 -12 c-30 -16 -1361 -2
-1371 15 -4 6 -8 385 -8 843 0 782 1 833 18 843 23 14 1351 2 1370 -12z"/>
<path d="M430 1565 l-94 -94 -43 39 c-23 22 -49 40 -56 40 -18 0 -37 -21 -37
-40 0 -17 119 -140 135 -140 17 0 245 234 245 251 0 19 -20 39 -40 39 -8 0
-58 -43 -110 -95z"/>
<path d="M640 1615 c-6 -8 -10 -22 -8 -32 3 -17 22 -18 260 -21 246 -2 258 -1
268 17 7 15 6 23 -6 35 -22 23 -495 24 -514 1z"/>
<path d="M648 1469 c-21 -12 -23 -40 -6 -57 9 -9 97 -12 334 -12 269 0 324 2
334 15 16 19 4 52 -23 59 -39 10 -621 6 -639 -5z"/>
<path d="M430 1025 l-94 -95 -41 40 c-48 47 -82 52 -91 14 -6 -22 2 -35 52
-85 33 -34 67 -59 79 -59 13 0 56 37 116 98 127 129 132 137 124 161 -13 42
-47 24 -145 -74z"/>
<path d="M634 1075 c-4 -8 -4 -22 0 -30 5 -13 43 -15 259 -15 265 0 287 3 266
42 -9 17 -27 18 -265 18 -217 0 -255 -2 -260 -15z"/>
<path d="M634 916 c-3 -14 -3 -30 1 -35 4 -8 116 -11 340 -11 327 0 334 0 340
20 15 49 6 50 -346 50 l-329 0 -6 -24z"/>
<path d="M430 535 l-94 -94 -43 39 c-23 22 -49 40 -56 40 -18 0 -37 -21 -37
-39 0 -20 113 -141 130 -141 19 0 250 231 250 250 0 20 -19 40 -40 40 -8 0
-58 -43 -110 -95z"/>
<path d="M640 585 c-6 -8 -10 -22 -8 -32 3 -17 22 -18 258 -21 228 -2 256 -1
267 14 9 12 9 22 2 35 -9 18 -26 19 -258 19 -205 0 -251 -3 -261 -15z"/>
<path d="M648 439 c-21 -12 -23 -40 -6 -57 17 -17 649 -17 666 0 18 18 14 46
-7 58 -26 14 -630 13 -653 -1z"/>
<path d="M3520 1874 c-218 -33 -379 -99 -513 -209 -252 -208 -368 -583 -292
-945 76 -361 335 -615 705 -690 91 -19 127 -21 270 -17 125 4 184 11 245 27
275 74 490 255 594 500 112 262 103 600 -23 855 -130 262 -375 428 -701 475
-67 9 -232 11 -285 4z m320 -383 c134 -46 238 -138 300 -266 48 -100 60 -159
60 -287 0 -278 -144 -480 -393 -553 -72 -21 -232 -21 -310 0 -192 50 -335 200
-382 397 -19 82 -19 247 0 323 51 201 198 351 392 400 84 21 249 14 333 -14z"/>
<path d="M5492 1299 c-99 -17 -196 -87 -250 -178 l-27 -46 -3 103 -3 102 -184
0 -185 0 0 -615 0 -615 184 0 184 0 4 348 c4 310 6 353 23 402 25 72 85 132
153 154 58 20 206 23 262 6 19 -5 36 -10 37 -10 2 0 3 79 3 175 0 175 0 175
-22 175 -13 0 -45 2 -73 4 -27 3 -74 1 -103 -5z"/>
<path d="M7942 1300 c-287 -40 -498 -220 -558 -476 -20 -87 -20 -249 1 -329
51 -200 201 -361 402 -430 256 -89 535 -35 711 138 28 28 52 54 52 57 0 3 -57
48 -126 99 l-125 92 -59 -54 c-68 -64 -126 -87 -216 -87 -119 0 -203 50 -253
152 -17 34 -31 67 -31 75 0 11 78 13 436 13 l437 0 -6 138 c-6 156 -21 225
-74 331 -104 206 -334 316 -591 281z m118 -271 c91 -21 161 -95 176 -186 l7
-43 -253 0 -252 0 7 37 c9 49 26 81 66 121 40 41 77 61 132 72 58 11 66 11
117 -1z"/>
<path d="M9509 1300 c-105 -19 -189 -77 -251 -173 l-33 -52 -3 103 -3 102
-184 0 -185 0 0 -615 0 -615 185 0 185 0 0 293 c0 160 5 326 10 367 18 137 74
215 177 246 53 16 197 19 256 5 l37 -9 0 174 c0 174 0 174 -22 174 -13 0 -45
2 -73 4 -27 3 -71 1 -96 -4z"/>
<path d="M10245 1300 c-135 -19 -253 -75 -325 -157 -101 -115 -118 -319 -37
-440 58 -87 151 -134 355 -179 139 -31 202 -59 221 -99 12 -25 12 -32 0 -54
-24 -42 -74 -61 -164 -61 -94 0 -158 25 -227 88 l-43 40 -113 -127 -113 -126
33 -27 c53 -44 141 -87 225 -110 103 -28 332 -31 437 -5 212 53 330 172 343
350 10 125 -38 241 -124 300 -62 43 -123 65 -287 106 -85 21 -167 46 -181 55
-58 38 -49 118 18 149 73 35 174 18 255 -43 l50 -38 111 112 112 113 -36 31
c-105 93 -331 146 -510 122z"/>
</g>
</svg>
