<?xml version="1.0" standalone="no"?>
<!DOCTYPE svg PUBLIC "-//W3C//DTD SVG 20010904//EN"
 "http://www.w3.org/TR/2001/REC-SVG-20010904/DTD/svg10.dtd">
<svg version="1.0" xmlns="http://www.w3.org/2000/svg"
 width="622.000000pt" height="561.000000pt" viewBox="0 0 622.000000 561.000000"
 preserveAspectRatio="xMidYMid meet">

<g transform="translate(0.000000,561.000000) scale(0.100000,-0.100000)"
fill="#000000" stroke="none">
<path d="M971 1003 c-7 -15 -96 -217 -196 -448 -101 -231 -194 -446 -208 -477
l-26 -58 113 0 113 0 38 95 39 95 172 0 172 0 39 -92 39 -93 112 -3 111 -3
-29 68 c-16 37 -114 264 -219 503 l-190 435 -34 3 c-28 3 -35 -1 -46 -25z m89
-483 c22 -52 40 -97 40 -102 0 -4 -39 -8 -86 -8 -65 0 -85 3 -81 13 47 116 81
196 84 193 2 -1 21 -45 43 -96z"/>
<path d="M1945 1018 c-89 -17 -184 -70 -253 -142 -252 -262 -157 -712 176
-836 118 -45 270 -44 384 2 l58 23 0 124 0 124 -32 -27 c-18 -15 -58 -39 -88
-53 -72 -35 -182 -38 -251 -6 -149 67 -219 240 -164 403 26 77 111 162 185
184 108 32 214 13 299 -54 l51 -40 0 124 0 124 -50 21 c-92 40 -204 50 -315
29z"/>
<path d="M3587 1015 c-205 -52 -348 -212 -379 -422 -37 -254 108 -492 345
-565 292 -90 591 80 652 369 57 266 -78 519 -321 604 -78 27 -219 34 -297 14z
m251 -215 c107 -46 175 -154 176 -281 1 -68 -3 -84 -34 -145 -76 -148 -245
-209 -393 -141 -109 50 -168 136 -175 257 -5 90 8 142 51 206 81 121 236 164
375 104z"/>
<path d="M0 515 l0 -495 105 0 105 0 0 185 0 185 130 0 130 0 0 100 0 100
-130 0 -130 0 0 110 0 110 180 0 180 0 0 100 0 100 -285 0 -285 0 0 -495z"/>
<path d="M2432 913 l3 -98 118 -3 117 -3 0 -394 0 -395 100 0 100 0 0 395 0
394 113 3 112 3 3 98 3 97 -336 0 -336 0 3 -97z"/>
<path d="M4460 515 l0 -495 100 0 100 0 0 175 0 175 28 0 c25 0 36 -15 127
-175 l99 -175 117 0 118 0 -111 182 c-61 101 -113 190 -115 198 -2 9 11 24 32
38 155 99 165 362 18 491 -78 69 -126 81 -333 81 l-180 0 0 -495z m374 264
c45 -39 55 -84 30 -136 -25 -49 -72 -73 -146 -73 l-58 0 0 120 0 120 70 0 c63
0 72 -3 104 -31z"/>
<path d="M5146 978 c9 -18 84 -160 165 -316 l149 -282 0 -180 0 -180 105 0
105 0 0 180 0 181 156 297 c86 163 161 305 166 315 8 16 0 17 -107 17 l-115 0
-103 -205 -102 -205 -103 205 -102 205 -115 0 -116 0 17 -32z"/>
</g>
</svg>
