<?xml version="1.0" standalone="no"?>
<!DOCTYPE svg PUBLIC "-//W3C//DTD SVG 20010904//EN"
 "http://www.w3.org/TR/2001/REC-SVG-20010904/DTD/svg10.dtd">
<svg version="1.0" xmlns="http://www.w3.org/2000/svg"
 width="1047.000000pt" height="244.000000pt" viewBox="0 0 1047.000000 244.000000"
 preserveAspectRatio="xMidYMid meet">

<g transform="translate(0.000000,244.000000) scale(0.100000,-0.100000)"
fill="#000000" stroke="none">
<path d="M3190 2420 c-104 -27 -228 -91 -293 -150 -215 -197 -236 -551 -43
-727 73 -67 143 -102 350 -173 98 -33 200 -72 226 -85 136 -69 169 -191 76
-281 -59 -56 -131 -78 -244 -72 -107 5 -195 42 -272 114 -30 28 -54 44 -59 38
-72 -75 -261 -289 -261 -295 0 -16 106 -92 182 -130 139 -70 208 -84 408 -84
196 0 251 11 378 71 231 111 352 367 297 627 -41 195 -170 297 -500 397 -186
56 -247 88 -287 148 -22 33 -24 112 -3 152 59 114 279 148 440 68 22 -11 52
-31 66 -45 l26 -24 55 58 c104 110 208 227 208 235 0 15 -128 93 -197 120
-112 44 -199 58 -346 57 -97 0 -152 -5 -207 -19z"/>
<path d="M4288 2420 c-70 -37 -118 -120 -118 -201 0 -49 42 -132 81 -161 73
-54 156 -62 236 -23 162 81 157 320 -9 390 -52 21 -144 19 -190 -5z"/>
<path d="M8735 2424 c-88 -48 -132 -127 -122 -220 18 -174 223 -256 353 -141
107 93 99 262 -15 342 -36 25 -53 30 -114 32 -52 2 -80 -1 -102 -13z"/>
<path d="M814 2405 c-175 -38 -319 -162 -385 -333 -31 -79 -38 -236 -14 -318
28 -97 74 -175 141 -241 l64 -63 -74 -34 c-193 -89 -347 -237 -438 -421 -60
-121 -98 -262 -98 -367 l0 -48 70 0 70 0 0 40 c0 62 28 187 59 261 126 300
439 496 761 475 52 -3 122 -13 155 -22 309 -83 545 -359 573 -672 l7 -77 73
-3 c39 -2 72 1 72 5 -1 108 -48 301 -98 398 -92 184 -258 344 -447 431 l-72
33 68 69 c108 110 153 220 153 372 1 74 -5 110 -22 162 -63 183 -210 313 -397
353 -84 18 -140 18 -221 0z m256 -154 c162 -62 270 -253 240 -423 -69 -377
-568 -445 -737 -100 -34 71 -43 192 -20 273 34 115 137 221 252 259 76 25 186
22 265 -9z"/>
<path d="M5255 1858 c-196 -37 -367 -216 -425 -444 -42 -161 -20 -368 52 -514
44 -88 152 -195 239 -237 219 -107 480 -77 612 70 l29 32 -4 -110 c-3 -95 -8
-117 -31 -161 -30 -59 -72 -98 -137 -128 -38 -17 -65 -21 -165 -21 -146 0
-217 21 -332 97 -44 30 -78 47 -82 41 -3 -6 -48 -74 -100 -152 -93 -139 -94
-141 -75 -162 28 -31 189 -106 279 -131 70 -19 107 -22 290 -22 191 -1 217 1
290 22 169 49 291 146 359 283 79 162 85 236 86 957 l0 562 -175 0 -175 0 0
-82 0 -82 -51 52 c-114 112 -305 164 -484 130z m352 -348 c191 -84 242 -336
99 -484 -70 -71 -116 -91 -216 -91 -69 0 -94 4 -131 23 -135 66 -205 217 -165
355 52 178 245 271 413 197z"/>
<path d="M7053 1855 c-99 -27 -171 -75 -224 -149 l-29 -39 0 86 0 87 -180 0
-180 0 0 -615 0 -615 190 0 190 0 0 363 c0 416 4 445 70 508 67 64 187 76 262
26 18 -12 44 -44 58 -72 l25 -50 3 -387 3 -388 191 0 190 0 -4 428 c-4 367 -7
437 -22 502 -46 188 -143 288 -312 319 -77 15 -168 13 -231 -4z"/>
<path d="M9903 1855 c-99 -27 -171 -75 -224 -149 l-29 -39 0 86 0 87 -180 0
-180 0 0 -615 0 -615 190 0 190 0 0 363 c0 413 4 444 69 508 64 63 188 76 263
26 18 -12 44 -44 58 -72 l25 -50 3 -387 3 -388 191 0 190 0 -5 428 c-5 462 -9
502 -63 622 -31 70 -102 141 -168 170 -95 40 -236 51 -333 25z"/>
<path d="M4200 1225 l0 -615 190 0 190 0 0 615 0 615 -190 0 -190 0 0 -615z"/>
<path d="M8640 1225 l0 -615 185 0 185 0 0 615 0 615 -185 0 -185 0 0 -615z"/>
</g>
</svg>
